<svg xmlns="http://www.w3.org/2000/svg" xmlns:xlink="http://www.w3.org/1999/xlink" width="256" zoomAndPan="magnify" viewBox="0 0 192 191.999996" height="256" preserveAspectRatio="xMidYMid meet" version="1.0"><defs><clipPath id="534092bc67"><path d="M 16 18.453125 L 176 18.453125 L 176 173.703125 L 16 173.703125 Z M 16 18.453125 " clip-rule="nonzero"/></clipPath></defs><g clip-path="url(#534092bc67)"><path fill="#f07eae" d="M 174.054688 72.65625 L 172.429688 74.429688 L 167.261719 80.042969 L 161.871094 85.949219 L 149.167969 99.6875 L 141.339844 108.253906 C 140.59375 109.03125 139.683594 109.425781 138.609375 109.433594 L 138.238281 109.433594 C 137.652344 109.363281 137.113281 109.167969 136.617188 108.84375 C 136.125 108.515625 135.730469 108.097656 135.433594 107.589844 L 124.871094 89.789062 C 124.625 89.367188 124.464844 88.914062 124.394531 88.429688 C 124.324219 87.945312 124.347656 87.464844 124.464844 86.988281 C 124.582031 86.511719 124.785156 86.078125 125.074219 85.679688 C 125.359375 85.28125 125.710938 84.953125 126.128906 84.695312 C 126.554688 84.449219 127.011719 84.296875 127.5 84.230469 C 127.988281 84.167969 128.46875 84.195312 128.945312 84.320312 C 129.421875 84.445312 129.855469 84.65625 130.25 84.949219 C 130.644531 85.246094 130.96875 85.601562 131.222656 86.023438 L 139.273438 99.6875 L 149.167969 88.832031 L 157.808594 79.378906 L 162.832031 73.914062 L 167.851562 68.449219 L 168.589844 67.636719 C 168.925781 67.273438 169.3125 66.988281 169.761719 66.78125 C 170.207031 66.574219 170.675781 66.460938 171.167969 66.4375 C 171.660156 66.417969 172.136719 66.492188 172.597656 66.660156 C 173.058594 66.832031 173.472656 67.082031 173.835938 67.414062 C 174.195312 67.746094 174.480469 68.136719 174.6875 68.582031 C 174.898438 69.027344 175.011719 69.5 175.03125 69.988281 C 175.050781 70.480469 174.976562 70.957031 174.808594 71.421875 C 174.640625 71.882812 174.390625 72.296875 174.054688 72.65625 Z M 174.054688 72.65625 L 172.429688 74.429688 L 167.261719 80.042969 L 161.871094 85.949219 L 149.167969 99.6875 L 141.339844 108.253906 C 140.59375 109.03125 139.683594 109.425781 138.609375 109.433594 L 138.238281 109.433594 C 137.652344 109.363281 137.113281 109.167969 136.617188 108.84375 C 136.125 108.515625 135.730469 108.097656 135.433594 107.589844 L 124.871094 89.789062 C 124.625 89.367188 124.464844 88.914062 124.394531 88.429688 C 124.324219 87.945312 124.347656 87.464844 124.464844 86.988281 C 124.582031 86.511719 124.785156 86.078125 125.074219 85.679688 C 125.359375 85.28125 125.710938 84.953125 126.128906 84.695312 C 126.554688 84.449219 127.011719 84.296875 127.5 84.230469 C 127.988281 84.167969 128.46875 84.195312 128.945312 84.320312 C 129.421875 84.445312 129.855469 84.65625 130.25 84.949219 C 130.644531 85.246094 130.96875 85.601562 131.222656 86.023438 L 139.273438 99.6875 L 149.167969 88.832031 L 157.808594 79.378906 L 162.832031 73.914062 L 167.851562 68.449219 L 168.589844 67.636719 C 168.925781 67.273438 169.3125 66.988281 169.761719 66.78125 C 170.207031 66.574219 170.675781 66.460938 171.167969 66.4375 C 171.660156 66.417969 172.136719 66.492188 172.597656 66.660156 C 173.058594 66.832031 173.472656 67.082031 173.835938 67.414062 C 174.195312 67.746094 174.480469 68.136719 174.6875 68.582031 C 174.898438 69.027344 175.011719 69.5 175.03125 69.988281 C 175.050781 70.480469 174.976562 70.957031 174.808594 71.421875 C 174.640625 71.882812 174.390625 72.296875 174.054688 72.65625 Z M 168.960938 83.734375 L 144.074219 110.839844 C 143.351562 111.578125 142.519531 112.148438 141.574219 112.558594 C 140.628906 112.96875 139.640625 113.183594 138.609375 113.203125 L 137.796875 113.203125 C 136.632812 113.058594 135.5625 112.664062 134.585938 112.015625 C 133.609375 111.363281 132.835938 110.527344 132.257812 109.507812 L 121.695312 91.710938 C 121.390625 91.292969 121.136719 90.847656 120.925781 90.375 C 120.714844 89.90625 120.554688 89.414062 120.445312 88.910156 C 120.339844 88.40625 120.285156 87.894531 120.285156 87.378906 C 120.28125 86.859375 120.335938 86.351562 120.441406 85.84375 C 120.550781 85.339844 120.707031 84.851562 120.917969 84.378906 C 121.125 83.90625 121.382812 83.460938 121.683594 83.039062 C 121.988281 82.621094 122.328125 82.238281 122.710938 81.890625 C 123.09375 81.546875 123.511719 81.242188 123.957031 80.984375 C 124.402344 80.722656 124.871094 80.511719 125.363281 80.351562 C 125.855469 80.191406 126.355469 80.082031 126.871094 80.027344 C 127.382812 79.96875 127.898438 79.96875 128.410156 80.019531 C 128.925781 80.070312 129.429688 80.175781 129.921875 80.332031 C 130.414062 80.492188 130.882812 80.699219 131.332031 80.953125 C 131.78125 81.210938 132.199219 81.511719 132.582031 81.855469 C 132.96875 82.199219 133.316406 82.578125 133.621094 82.996094 C 133.925781 83.410156 134.1875 83.855469 134.398438 84.324219 L 139.9375 93.558594 L 160.246094 71.402344 C 156.996094 68.453125 153.300781 66.234375 149.167969 64.753906 C 145.59375 63.4375 141.902344 62.773438 138.089844 62.761719 C 137.003906 62.761719 135.917969 62.816406 134.832031 62.921875 C 133.75 63.027344 132.675781 63.1875 131.609375 63.398438 C 130.539062 63.613281 129.484375 63.875 128.445312 64.191406 C 127.402344 64.507812 126.378906 64.875 125.375 65.292969 C 124.367188 65.707031 123.386719 66.171875 122.425781 66.6875 C 121.464844 67.199219 120.53125 67.757812 119.628906 68.363281 C 118.722656 68.96875 117.851562 69.613281 117.007812 70.304688 C 116.167969 70.996094 115.363281 71.726562 114.59375 72.496094 C 113.824219 73.265625 113.09375 74.070312 112.402344 74.910156 C 111.710938 75.753906 111.0625 76.625 110.460938 77.53125 C 109.855469 78.4375 109.296875 79.367188 108.78125 80.328125 C 108.269531 81.289062 107.804688 82.269531 107.386719 83.277344 C 106.972656 84.28125 106.605469 85.304688 106.289062 86.347656 C 105.972656 87.390625 105.710938 88.441406 105.496094 89.511719 C 105.285156 90.578125 105.125 91.652344 105.019531 92.738281 C 104.910156 93.820312 104.859375 94.90625 104.859375 95.996094 C 104.859375 97.082031 104.910156 98.167969 105.019531 99.25 C 105.125 100.335938 105.285156 101.410156 105.496094 102.476562 C 105.710938 103.546875 105.972656 104.601562 106.289062 105.640625 C 106.605469 106.683594 106.972656 107.707031 107.386719 108.710938 C 107.804688 109.71875 108.269531 110.699219 108.78125 111.660156 C 109.296875 112.621094 109.855469 113.550781 110.460938 114.457031 C 111.0625 115.363281 111.710938 116.234375 112.402344 117.078125 C 113.09375 117.917969 113.824219 118.722656 114.59375 119.492188 C 115.363281 120.261719 116.167969 120.992188 117.007812 121.683594 C 117.851562 122.375 118.722656 123.023438 119.628906 123.625 C 120.53125 124.230469 121.464844 124.789062 122.425781 125.304688 C 123.386719 125.816406 124.367188 126.28125 125.375 126.695312 C 126.378906 127.113281 127.402344 127.480469 128.445312 127.796875 C 129.484375 128.113281 130.539062 128.375 131.609375 128.589844 C 132.675781 128.800781 133.75 128.960938 134.832031 129.066406 C 135.917969 129.171875 137.003906 129.226562 138.089844 129.226562 C 141.898438 129.238281 145.589844 128.597656 149.167969 127.308594 C 150.777344 126.734375 152.332031 126.042969 153.832031 125.234375 C 155.335938 124.425781 156.765625 123.503906 158.125 122.472656 C 159.488281 121.441406 160.761719 120.316406 161.949219 119.089844 C 163.132812 117.863281 164.222656 116.554688 165.207031 115.160156 C 166.191406 113.765625 167.066406 112.308594 167.828125 110.78125 C 168.585938 109.253906 169.226562 107.675781 169.746094 106.050781 C 170.265625 104.425781 170.65625 102.769531 170.921875 101.082031 C 171.1875 99.398438 171.320312 97.699219 171.324219 95.996094 C 171.339844 91.753906 170.550781 87.667969 168.960938 83.734375 Z M 97.472656 95.996094 C 97.476562 97.324219 97.542969 98.648438 97.675781 99.972656 C 97.808594 101.296875 98.003906 102.609375 98.265625 103.914062 C 98.527344 105.21875 98.851562 106.503906 99.238281 107.777344 C 99.625 109.046875 100.074219 110.296875 100.585938 111.527344 C 101.09375 112.753906 101.664062 113.953125 102.292969 115.125 C 102.917969 116.300781 103.601562 117.4375 104.339844 118.542969 C 105.082031 119.648438 105.871094 120.714844 106.714844 121.742188 C 107.558594 122.769531 108.453125 123.753906 109.390625 124.695312 C 110.332031 125.632812 111.316406 126.527344 112.34375 127.371094 C 113.371094 128.214844 114.4375 129.003906 115.542969 129.742188 C 116.648438 130.484375 117.785156 131.167969 118.957031 131.792969 C 120.128906 132.421875 121.332031 132.992188 122.558594 133.5 C 123.785156 134.011719 125.035156 134.460938 126.308594 134.847656 C 127.582031 135.234375 128.867188 135.558594 130.171875 135.820312 C 131.476562 136.082031 132.789062 136.277344 134.113281 136.410156 C 135.433594 136.542969 136.761719 136.609375 138.089844 136.613281 C 141.859375 136.625 145.550781 136.109375 149.167969 135.0625 L 149.167969 155.074219 C 149.167969 155.679688 149.140625 156.28125 149.078125 156.882812 C 149.019531 157.484375 148.933594 158.082031 148.8125 158.675781 C 148.695312 159.269531 148.550781 159.855469 148.375 160.433594 C 148.199219 161.011719 147.996094 161.582031 147.761719 162.140625 C 147.53125 162.699219 147.273438 163.246094 146.988281 163.777344 C 146.703125 164.3125 146.394531 164.828125 146.058594 165.332031 C 145.722656 165.835938 145.363281 166.320312 144.976562 166.789062 C 144.59375 167.253906 144.1875 167.703125 143.761719 168.128906 C 143.332031 168.558594 142.886719 168.960938 142.417969 169.347656 C 141.953125 169.730469 141.464844 170.089844 140.964844 170.425781 C 140.460938 170.761719 139.941406 171.070312 139.410156 171.355469 C 138.875 171.640625 138.328125 171.902344 137.769531 172.132812 C 137.210938 172.363281 136.644531 172.566406 136.066406 172.742188 C 135.488281 172.917969 134.902344 173.066406 134.308594 173.183594 C 133.714844 173.300781 133.117188 173.390625 132.515625 173.449219 C 131.914062 173.507812 131.3125 173.539062 130.707031 173.539062 L 34.699219 173.539062 C 34.097656 173.539062 33.492188 173.507812 32.890625 173.449219 C 32.289062 173.390625 31.691406 173.300781 31.097656 173.183594 C 30.503906 173.066406 29.917969 172.917969 29.339844 172.742188 C 28.761719 172.566406 28.195312 172.363281 27.636719 172.132812 C 27.078125 171.902344 26.53125 171.640625 25.996094 171.355469 C 25.464844 171.070312 24.945312 170.761719 24.441406 170.425781 C 23.941406 170.089844 23.457031 169.730469 22.988281 169.347656 C 22.519531 168.960938 22.074219 168.558594 21.644531 168.128906 C 21.21875 167.703125 20.8125 167.253906 20.429688 166.789062 C 20.046875 166.320312 19.683594 165.835938 19.347656 165.332031 C 19.011719 164.828125 18.703125 164.3125 18.417969 163.777344 C 18.132812 163.246094 17.875 162.699219 17.644531 162.140625 C 17.410156 161.582031 17.207031 161.011719 17.03125 160.433594 C 16.855469 159.855469 16.710938 159.269531 16.59375 158.675781 C 16.476562 158.082031 16.386719 157.484375 16.328125 156.882812 C 16.265625 156.28125 16.238281 155.679688 16.238281 155.074219 L 16.238281 36.914062 C 16.238281 36.308594 16.265625 35.707031 16.328125 35.105469 C 16.386719 34.503906 16.476562 33.90625 16.59375 33.3125 C 16.710938 32.71875 16.855469 32.132812 17.03125 31.554688 C 17.207031 30.976562 17.410156 30.40625 17.644531 29.847656 C 17.875 29.289062 18.132812 28.742188 18.417969 28.210938 C 18.703125 27.675781 19.011719 27.160156 19.347656 26.65625 C 19.683594 26.152344 20.046875 25.667969 20.429688 25.203125 C 20.8125 24.734375 21.21875 24.285156 21.644531 23.859375 C 22.074219 23.429688 22.519531 23.027344 22.988281 22.640625 C 23.457031 22.257812 23.941406 21.898438 24.441406 21.5625 C 24.945312 21.226562 25.464844 20.917969 25.996094 20.632812 C 26.53125 20.347656 27.078125 20.089844 27.636719 19.855469 C 28.195312 19.625 28.761719 19.421875 29.339844 19.246094 C 29.917969 19.070312 30.503906 18.925781 31.097656 18.804688 C 31.691406 18.6875 32.289062 18.597656 32.890625 18.539062 C 33.492188 18.480469 34.097656 18.453125 34.699219 18.453125 L 130.707031 18.453125 C 131.3125 18.453125 131.914062 18.480469 132.515625 18.539062 C 133.117188 18.597656 133.714844 18.6875 134.308594 18.804688 C 134.902344 18.925781 135.488281 19.070312 136.066406 19.246094 C 136.644531 19.421875 137.210938 19.625 137.769531 19.855469 C 138.328125 20.089844 138.875 20.347656 139.410156 20.632812 C 139.941406 20.917969 140.460938 21.226562 140.964844 21.5625 C 141.464844 21.898438 141.953125 22.257812 142.417969 22.640625 C 142.886719 23.027344 143.332031 23.429688 143.761719 23.859375 C 144.1875 24.285156 144.59375 24.734375 144.976562 25.203125 C 145.363281 25.667969 145.722656 26.152344 146.058594 26.65625 C 146.394531 27.160156 146.703125 27.675781 146.988281 28.210938 C 147.273438 28.742188 147.53125 29.289062 147.761719 29.847656 C 147.996094 30.40625 148.199219 30.976562 148.375 31.554688 C 148.550781 32.132812 148.695312 32.71875 148.8125 33.3125 C 148.933594 33.90625 149.019531 34.503906 149.078125 35.105469 C 149.140625 35.707031 149.167969 36.308594 149.167969 36.914062 L 149.167969 56.925781 C 145.550781 55.878906 141.859375 55.363281 138.089844 55.375 C 136.761719 55.378906 135.433594 55.445312 134.113281 55.578125 C 132.789062 55.710938 131.476562 55.90625 130.171875 56.167969 C 128.867188 56.429688 127.582031 56.753906 126.308594 57.140625 C 125.035156 57.53125 123.785156 57.976562 122.558594 58.488281 C 121.332031 58.996094 120.128906 59.566406 118.957031 60.195312 C 117.785156 60.820312 116.648438 61.503906 115.542969 62.246094 C 114.4375 62.984375 113.371094 63.773438 112.34375 64.617188 C 111.316406 65.460938 110.332031 66.355469 109.390625 67.292969 C 108.453125 68.234375 107.558594 69.21875 106.714844 70.246094 C 105.871094 71.273438 105.082031 72.339844 104.339844 73.445312 C 103.601562 74.550781 102.917969 75.691406 102.292969 76.863281 C 101.664062 78.035156 101.09375 79.234375 100.585938 80.460938 C 100.074219 81.691406 99.625 82.941406 99.238281 84.210938 C 98.851562 85.484375 98.527344 86.769531 98.265625 88.074219 C 98.003906 89.378906 97.808594 90.691406 97.675781 92.015625 C 97.542969 93.339844 97.476562 94.664062 97.472656 95.996094 Z M 45.777344 110.765625 C 45.777344 111.253906 45.871094 111.726562 46.058594 112.175781 C 46.246094 112.628906 46.511719 113.027344 46.859375 113.375 C 47.207031 113.722656 47.605469 113.988281 48.058594 114.175781 C 48.511719 114.363281 48.980469 114.457031 49.46875 114.457031 L 86.394531 114.457031 C 86.886719 114.457031 87.355469 114.363281 87.808594 114.175781 C 88.261719 113.988281 88.660156 113.722656 89.007812 113.375 C 89.351562 113.027344 89.621094 112.628906 89.808594 112.175781 C 89.996094 111.726562 90.089844 111.253906 90.089844 110.765625 C 90.089844 110.273438 89.996094 109.804688 89.808594 109.351562 C 89.621094 108.898438 89.351562 108.5 89.007812 108.152344 C 88.660156 107.808594 88.261719 107.539062 87.808594 107.351562 C 87.355469 107.164062 86.886719 107.070312 86.394531 107.070312 L 49.46875 107.070312 C 48.980469 107.070312 48.511719 107.164062 48.058594 107.351562 C 47.605469 107.539062 47.207031 107.808594 46.859375 108.152344 C 46.511719 108.5 46.246094 108.898438 46.058594 109.351562 C 45.871094 109.804688 45.777344 110.273438 45.777344 110.765625 Z M 49.46875 84.917969 L 79.011719 84.917969 C 79.5 84.917969 79.972656 84.824219 80.421875 84.636719 C 80.875 84.449219 81.277344 84.179688 81.621094 83.835938 C 81.96875 83.488281 82.234375 83.089844 82.421875 82.636719 C 82.609375 82.183594 82.703125 81.714844 82.703125 81.222656 C 82.703125 80.734375 82.609375 80.261719 82.421875 79.8125 C 82.234375 79.359375 81.96875 78.960938 81.621094 78.613281 C 81.277344 78.265625 80.875 78 80.421875 77.8125 C 79.972656 77.625 79.5 77.53125 79.011719 77.53125 L 49.46875 77.53125 C 48.980469 77.53125 48.511719 77.625 48.058594 77.8125 C 47.605469 78 47.207031 78.265625 46.859375 78.613281 C 46.511719 78.960938 46.246094 79.359375 46.058594 79.8125 C 45.871094 80.261719 45.777344 80.734375 45.777344 81.222656 C 45.777344 81.714844 45.871094 82.183594 46.058594 82.636719 C 46.246094 83.089844 46.511719 83.488281 46.859375 83.835938 C 47.207031 84.179688 47.605469 84.449219 48.058594 84.636719 C 48.511719 84.824219 48.980469 84.917969 49.46875 84.917969 Z M 49.46875 136.613281 C 48.980469 136.613281 48.511719 136.707031 48.058594 136.894531 C 47.605469 137.082031 47.207031 137.347656 46.859375 137.695312 C 46.511719 138.039062 46.246094 138.4375 46.058594 138.890625 C 45.871094 139.34375 45.777344 139.816406 45.777344 140.304688 C 45.777344 140.792969 45.871094 141.265625 46.058594 141.71875 C 46.246094 142.167969 46.511719 142.570312 46.859375 142.914062 C 47.207031 143.261719 47.605469 143.527344 48.058594 143.714844 C 48.511719 143.902344 48.980469 143.996094 49.46875 143.996094 L 115.9375 143.996094 C 116.425781 143.996094 116.898438 143.902344 117.347656 143.714844 C 117.800781 143.527344 118.199219 143.261719 118.546875 142.914062 C 118.894531 142.570312 119.160156 142.167969 119.347656 141.71875 C 119.535156 141.265625 119.628906 140.792969 119.628906 140.304688 C 119.628906 139.816406 119.535156 139.34375 119.347656 138.890625 C 119.160156 138.4375 118.894531 138.039062 118.546875 137.695312 C 118.199219 137.347656 117.800781 137.082031 117.347656 136.894531 C 116.898438 136.707031 116.425781 136.613281 115.9375 136.613281 Z M 115.9375 55.375 C 116.425781 55.375 116.898438 55.28125 117.347656 55.09375 C 117.800781 54.90625 118.199219 54.640625 118.546875 54.296875 C 118.894531 53.949219 119.160156 53.550781 119.347656 53.097656 C 119.535156 52.644531 119.628906 52.171875 119.628906 51.683594 C 119.628906 51.195312 119.535156 50.722656 119.347656 50.269531 C 119.160156 49.820312 118.894531 49.417969 118.546875 49.074219 C 118.199219 48.726562 117.800781 48.460938 117.347656 48.273438 C 116.898438 48.085938 116.425781 47.992188 115.9375 47.992188 L 49.46875 47.992188 C 48.980469 47.992188 48.511719 48.085938 48.058594 48.273438 C 47.605469 48.460938 47.207031 48.726562 46.859375 49.074219 C 46.511719 49.417969 46.246094 49.820312 46.058594 50.269531 C 45.871094 50.722656 45.777344 51.195312 45.777344 51.683594 C 45.777344 52.171875 45.871094 52.644531 46.058594 53.097656 C 46.246094 53.550781 46.511719 53.949219 46.859375 54.296875 C 47.207031 54.640625 47.605469 54.90625 48.058594 55.09375 C 48.511719 55.28125 48.980469 55.375 49.46875 55.375 Z M 115.9375 55.375 " fill-opacity="1" fill-rule="nonzero"/></g></svg>