<svg xmlns="http://www.w3.org/2000/svg" xmlns:xlink="http://www.w3.org/1999/xlink" width="256" zoomAndPan="magnify" viewBox="0 0 192 191.999996" height="256" preserveAspectRatio="xMidYMid meet" version="1.0"><path fill="#f07eae" d="M 140.367188 29.441406 L 147.761719 29.441406 C 148.734375 29.441406 149.695312 29.535156 150.648438 29.726562 C 151.601562 29.914062 152.523438 30.195312 153.421875 30.566406 C 154.320312 30.941406 155.171875 31.394531 155.980469 31.933594 C 156.785156 32.472656 157.535156 33.085938 158.222656 33.773438 C 158.90625 34.460938 159.519531 35.207031 160.058594 36.015625 C 160.601562 36.824219 161.054688 37.675781 161.425781 38.574219 C 161.796875 39.46875 162.078125 40.394531 162.269531 41.347656 C 162.457031 42.300781 162.550781 43.261719 162.550781 44.230469 L 162.550781 147.761719 C 162.550781 148.734375 162.457031 149.695312 162.269531 150.648438 C 162.078125 151.601562 161.796875 152.523438 161.425781 153.421875 C 161.054688 154.320312 160.601562 155.171875 160.058594 155.980469 C 159.519531 156.785156 158.90625 157.535156 158.222656 158.222656 C 157.535156 158.90625 156.785156 159.519531 155.980469 160.058594 C 155.171875 160.601562 154.320312 161.054688 153.421875 161.425781 C 152.523438 161.796875 151.601562 162.078125 150.648438 162.269531 C 149.695312 162.457031 148.734375 162.550781 147.761719 162.550781 L 140.367188 162.550781 C 139.398438 162.550781 138.433594 162.457031 137.480469 162.269531 C 136.53125 162.078125 135.605469 161.796875 134.707031 161.425781 C 133.808594 161.054688 132.957031 160.601562 132.152344 160.058594 C 131.34375 159.519531 130.597656 158.90625 129.910156 158.222656 C 129.222656 157.535156 128.609375 156.785156 128.070312 155.980469 C 127.53125 155.171875 127.074219 154.320312 126.703125 153.421875 C 126.332031 152.523438 126.050781 151.601562 125.863281 150.648438 C 125.671875 149.695312 125.578125 148.734375 125.578125 147.761719 L 125.578125 44.230469 C 125.578125 43.261719 125.671875 42.300781 125.863281 41.347656 C 126.050781 40.394531 126.332031 39.46875 126.703125 38.574219 C 127.074219 37.675781 127.53125 36.824219 128.070312 36.015625 C 128.609375 35.207031 129.222656 34.460938 129.910156 33.773438 C 130.597656 33.085938 131.34375 32.472656 132.152344 31.933594 C 132.957031 31.394531 133.808594 30.941406 134.707031 30.566406 C 135.605469 30.195312 136.53125 29.914062 137.480469 29.726562 C 138.433594 29.535156 139.398438 29.441406 140.367188 29.441406 Z M 140.367188 29.441406 " fill-opacity="1" fill-rule="nonzero"/><path fill="#f07eae" d="M 92.300781 73.8125 L 99.695312 73.8125 C 100.667969 73.8125 101.628906 73.90625 102.582031 74.097656 C 103.53125 74.285156 104.457031 74.566406 105.355469 74.9375 C 106.253906 75.308594 107.105469 75.765625 107.910156 76.304688 C 108.71875 76.84375 109.464844 77.457031 110.152344 78.144531 C 110.839844 78.832031 111.453125 79.578125 111.992188 80.386719 C 112.53125 81.191406 112.988281 82.046875 113.359375 82.941406 C 113.730469 83.839844 114.011719 84.765625 114.199219 85.71875 C 114.390625 86.667969 114.484375 87.632812 114.484375 88.601562 L 114.484375 147.761719 C 114.484375 148.734375 114.390625 149.695312 114.199219 150.648438 C 114.011719 151.601562 113.730469 152.523438 113.359375 153.421875 C 112.988281 154.320312 112.53125 155.171875 111.992188 155.980469 C 111.453125 156.785156 110.839844 157.535156 110.152344 158.222656 C 109.464844 158.90625 108.71875 159.519531 107.910156 160.058594 C 107.105469 160.601562 106.253906 161.054688 105.355469 161.425781 C 104.457031 161.796875 103.53125 162.078125 102.582031 162.269531 C 101.628906 162.457031 100.667969 162.550781 99.695312 162.550781 L 92.300781 162.550781 C 91.328125 162.550781 90.367188 162.457031 89.414062 162.269531 C 88.460938 162.078125 87.539062 161.796875 86.640625 161.425781 C 85.742188 161.054688 84.890625 160.601562 84.082031 160.058594 C 83.277344 159.519531 82.527344 158.90625 81.84375 158.222656 C 81.15625 157.535156 80.542969 156.785156 80.003906 155.980469 C 79.464844 155.171875 79.007812 154.320312 78.636719 153.421875 C 78.265625 152.523438 77.984375 151.601562 77.792969 150.648438 C 77.605469 149.695312 77.511719 148.734375 77.511719 147.761719 L 77.511719 88.601562 C 77.511719 87.632812 77.605469 86.667969 77.792969 85.71875 C 77.984375 84.765625 78.265625 83.839844 78.636719 82.941406 C 79.007812 82.046875 79.464844 81.191406 80.003906 80.386719 C 80.542969 79.578125 81.15625 78.832031 81.84375 78.144531 C 82.527344 77.457031 83.277344 76.84375 84.082031 76.304688 C 84.890625 75.765625 85.742188 75.308594 86.640625 74.9375 C 87.539062 74.566406 88.460938 74.285156 89.414062 74.097656 C 90.367188 73.90625 91.328125 73.8125 92.300781 73.8125 Z M 92.300781 73.8125 " fill-opacity="1" fill-rule="nonzero"/><path fill="#f07eae" d="M 44.230469 125.578125 L 51.628906 125.578125 C 52.597656 125.578125 53.558594 125.671875 54.511719 125.863281 C 55.464844 126.050781 56.390625 126.332031 57.289062 126.703125 C 58.183594 127.074219 59.035156 127.53125 59.84375 128.070312 C 60.652344 128.609375 61.398438 129.222656 62.085938 129.910156 C 62.773438 130.597656 63.386719 131.34375 63.925781 132.152344 C 64.464844 132.957031 64.921875 133.808594 65.292969 134.707031 C 65.664062 135.605469 65.945312 136.53125 66.132812 137.480469 C 66.324219 138.433594 66.417969 139.398438 66.417969 140.367188 L 66.417969 147.761719 C 66.417969 148.734375 66.324219 149.695312 66.132812 150.648438 C 65.945312 151.601562 65.664062 152.523438 65.292969 153.421875 C 64.921875 154.320312 64.464844 155.171875 63.925781 155.980469 C 63.386719 156.785156 62.773438 157.535156 62.085938 158.222656 C 61.398438 158.90625 60.652344 159.519531 59.84375 160.058594 C 59.035156 160.601562 58.183594 161.054688 57.289062 161.425781 C 56.390625 161.796875 55.464844 162.078125 54.511719 162.269531 C 53.558594 162.457031 52.597656 162.550781 51.628906 162.550781 L 44.230469 162.550781 C 43.261719 162.550781 42.300781 162.457031 41.347656 162.269531 C 40.394531 162.078125 39.46875 161.796875 38.574219 161.425781 C 37.675781 161.054688 36.824219 160.601562 36.015625 160.058594 C 35.207031 159.519531 34.460938 158.90625 33.773438 158.222656 C 33.085938 157.535156 32.472656 156.785156 31.933594 155.980469 C 31.394531 155.171875 30.941406 154.320312 30.566406 153.421875 C 30.195312 152.523438 29.914062 151.601562 29.726562 150.648438 C 29.535156 149.695312 29.441406 148.734375 29.441406 147.761719 L 29.441406 140.367188 C 29.441406 139.398438 29.535156 138.433594 29.726562 137.480469 C 29.914062 136.53125 30.195312 135.605469 30.566406 134.707031 C 30.941406 133.808594 31.394531 132.957031 31.933594 132.152344 C 32.472656 131.34375 33.085938 130.597656 33.773438 129.910156 C 34.460938 129.222656 35.207031 128.609375 36.015625 128.070312 C 36.824219 127.53125 37.675781 127.074219 38.574219 126.703125 C 39.46875 126.332031 40.394531 126.050781 41.347656 125.863281 C 42.300781 125.671875 43.261719 125.578125 44.230469 125.578125 Z M 44.230469 125.578125 " fill-opacity="1" fill-rule="nonzero"/></svg>