<svg xmlns="http://www.w3.org/2000/svg" xmlns:xlink="http://www.w3.org/1999/xlink" width="48" zoomAndPan="magnify" viewBox="0 0 36 36.000001" height="48" preserveAspectRatio="xMidYMid meet" version="1.0"><path fill="#f07eae" d="M 25.296875 4.378906 C 24.914062 4.378906 24.535156 4.414062 24.160156 4.492188 C 23.78125 4.566406 23.417969 4.675781 23.0625 4.824219 C 22.710938 4.96875 22.371094 5.148438 22.054688 5.363281 C 21.734375 5.574219 21.441406 5.816406 21.167969 6.089844 C 20.898438 6.359375 20.65625 6.652344 20.441406 6.972656 C 20.230469 7.292969 20.050781 7.628906 19.902344 7.980469 C 19.757812 8.335938 19.644531 8.703125 19.570312 9.078125 C 19.496094 9.453125 19.460938 9.832031 19.460938 10.214844 C 19.460938 10.597656 19.496094 10.980469 19.570312 11.355469 C 19.644531 11.730469 19.757812 12.097656 19.902344 12.449219 C 20.050781 12.804688 20.230469 13.140625 20.441406 13.460938 C 20.65625 13.777344 20.898438 14.074219 21.167969 14.34375 C 21.441406 14.617188 21.734375 14.855469 22.054688 15.070312 C 22.371094 15.28125 22.710938 15.464844 23.0625 15.609375 C 23.417969 15.757812 23.78125 15.867188 24.160156 15.941406 C 24.535156 16.015625 24.914062 16.054688 25.296875 16.054688 C 25.679688 16.054688 26.058594 16.015625 26.4375 15.941406 C 26.8125 15.867188 27.175781 15.757812 27.53125 15.609375 C 27.886719 15.464844 28.222656 15.28125 28.539062 15.070312 C 28.859375 14.855469 29.152344 14.617188 29.425781 14.34375 C 29.695312 14.074219 29.9375 13.777344 30.152344 13.460938 C 30.363281 13.140625 30.542969 12.804688 30.691406 12.449219 C 30.835938 12.097656 30.949219 11.730469 31.023438 11.355469 C 31.097656 10.980469 31.136719 10.597656 31.136719 10.214844 C 31.136719 9.832031 31.097656 9.453125 31.023438 9.078125 C 30.949219 8.703125 30.835938 8.335938 30.691406 7.980469 C 30.542969 7.628906 30.363281 7.292969 30.152344 6.972656 C 29.9375 6.652344 29.695312 6.359375 29.425781 6.089844 C 29.152344 5.816406 28.859375 5.574219 28.539062 5.363281 C 28.222656 5.148438 27.886719 4.96875 27.53125 4.824219 C 27.175781 4.675781 26.8125 4.566406 26.4375 4.492188 C 26.058594 4.414062 25.679688 4.378906 25.296875 4.378906 M 4.863281 24.8125 C 4.863281 24.425781 4.902344 24.046875 4.976562 23.671875 C 5.050781 23.296875 5.164062 22.929688 5.308594 22.578125 C 5.457031 22.222656 5.636719 21.886719 5.847656 21.566406 C 6.0625 21.25 6.304688 20.953125 6.574219 20.683594 C 6.847656 20.410156 7.140625 20.167969 7.460938 19.957031 C 7.777344 19.742188 8.113281 19.5625 8.46875 19.417969 C 8.824219 19.269531 9.1875 19.160156 9.5625 19.085938 C 9.941406 19.011719 10.320312 18.972656 10.703125 18.972656 C 11.085938 18.972656 11.464844 19.011719 11.839844 19.085938 C 12.21875 19.160156 12.582031 19.269531 12.9375 19.417969 C 13.289062 19.5625 13.628906 19.742188 13.945312 19.957031 C 14.265625 20.167969 14.558594 20.410156 14.832031 20.683594 C 15.101562 20.953125 15.34375 21.25 15.558594 21.566406 C 15.769531 21.886719 15.949219 22.222656 16.097656 22.578125 C 16.242188 22.929688 16.355469 23.296875 16.429688 23.671875 C 16.503906 24.046875 16.539062 24.425781 16.539062 24.8125 C 16.539062 25.195312 16.503906 25.574219 16.429688 25.949219 C 16.355469 26.324219 16.242188 26.691406 16.097656 27.042969 C 15.949219 27.398438 15.769531 27.734375 15.558594 28.054688 C 15.34375 28.371094 15.101562 28.667969 14.832031 28.9375 C 14.558594 29.210938 14.265625 29.453125 13.945312 29.664062 C 13.628906 29.878906 13.289062 30.058594 12.9375 30.203125 C 12.582031 30.351562 12.21875 30.460938 11.839844 30.535156 C 11.464844 30.609375 11.085938 30.648438 10.703125 30.648438 C 10.320312 30.648438 9.941406 30.609375 9.5625 30.535156 C 9.1875 30.460938 8.824219 30.351562 8.46875 30.203125 C 8.113281 30.058594 7.777344 29.878906 7.460938 29.664062 C 7.140625 29.453125 6.847656 29.210938 6.574219 28.9375 C 6.304688 28.667969 6.0625 28.371094 5.847656 28.054688 C 5.636719 27.734375 5.457031 27.398438 5.308594 27.042969 C 5.164062 26.691406 5.050781 26.324219 4.976562 25.949219 C 4.902344 25.574219 4.863281 25.195312 4.863281 24.8125 M 19.460938 20.433594 C 19.460938 20.238281 19.496094 20.050781 19.570312 19.875 C 19.644531 19.695312 19.75 19.539062 19.886719 19.402344 C 20.023438 19.261719 20.179688 19.15625 20.359375 19.085938 C 20.539062 19.011719 20.726562 18.972656 20.917969 18.972656 L 29.675781 18.972656 C 29.871094 18.972656 30.054688 19.011719 30.234375 19.085938 C 30.414062 19.15625 30.570312 19.261719 30.707031 19.402344 C 30.84375 19.539062 30.949219 19.695312 31.023438 19.875 C 31.097656 20.050781 31.136719 20.238281 31.136719 20.433594 L 31.136719 27.730469 C 31.136719 28.117188 31.0625 28.488281 30.914062 28.847656 C 30.765625 29.203125 30.554688 29.519531 30.28125 29.792969 C 30.007812 30.066406 29.691406 30.277344 29.332031 30.425781 C 28.976562 30.574219 28.601562 30.648438 28.214844 30.648438 L 22.378906 30.648438 C 21.992188 30.648438 21.617188 30.574219 21.261719 30.425781 C 20.902344 30.277344 20.589844 30.066406 20.3125 29.792969 C 20.039062 29.519531 19.828125 29.203125 19.683594 28.847656 C 19.535156 28.488281 19.460938 28.117188 19.460938 27.730469 Z M 4.863281 5.835938 C 4.863281 5.644531 4.902344 5.457031 4.976562 5.28125 C 5.050781 5.101562 5.15625 4.941406 5.292969 4.804688 C 5.429688 4.667969 5.585938 4.5625 5.765625 4.488281 C 5.945312 4.414062 6.128906 4.378906 6.324219 4.378906 L 15.082031 4.378906 C 15.273438 4.378906 15.460938 4.414062 15.640625 4.488281 C 15.820312 4.5625 15.976562 4.667969 16.113281 4.804688 C 16.25 4.941406 16.355469 5.101562 16.429688 5.28125 C 16.503906 5.457031 16.539062 5.644531 16.539062 5.835938 L 16.539062 13.136719 C 16.539062 13.523438 16.464844 13.894531 16.316406 14.253906 C 16.171875 14.609375 15.960938 14.925781 15.6875 15.199219 C 15.410156 15.472656 15.097656 15.683594 14.738281 15.832031 C 14.382812 15.980469 14.007812 16.054688 13.621094 16.054688 L 7.785156 16.054688 C 7.398438 16.054688 7.023438 15.980469 6.667969 15.832031 C 6.308594 15.683594 5.992188 15.472656 5.71875 15.199219 C 5.445312 14.925781 5.234375 14.609375 5.085938 14.253906 C 4.9375 13.894531 4.863281 13.523438 4.863281 13.136719 Z M 4.863281 5.835938 " fill-opacity="1" fill-rule="evenodd"/></svg>