<svg xmlns="http://www.w3.org/2000/svg" xmlns:xlink="http://www.w3.org/1999/xlink" width="48" zoomAndPan="magnify" viewBox="0 0 36 36.000001" height="48" preserveAspectRatio="xMidYMid meet" version="1.0"><path fill="#f07eae" d="M 17.988281 21.203125 C 17.621094 21.203125 17.265625 21.148438 16.914062 21.042969 C 16.566406 20.9375 16.238281 20.785156 15.933594 20.582031 C 15.628906 20.378906 15.363281 20.132812 15.128906 19.851562 C 14.898438 19.570312 14.714844 19.257812 14.574219 18.921875 C 14.433594 18.582031 14.347656 18.230469 14.3125 17.867188 C 14.277344 17.503906 14.292969 17.144531 14.367188 16.785156 C 14.4375 16.425781 14.5625 16.085938 14.734375 15.765625 C 14.90625 15.441406 15.125 15.152344 15.382812 14.894531 C 15.484375 14.796875 15.597656 14.722656 15.726562 14.667969 C 15.855469 14.617188 15.988281 14.589844 16.125 14.589844 C 16.265625 14.589844 16.398438 14.617188 16.527344 14.671875 C 16.65625 14.726562 16.769531 14.800781 16.867188 14.902344 C 16.964844 15 17.039062 15.113281 17.09375 15.242188 C 17.144531 15.371094 17.171875 15.503906 17.171875 15.644531 C 17.167969 15.785156 17.140625 15.917969 17.089844 16.046875 C 17.035156 16.171875 16.957031 16.285156 16.859375 16.382812 C 16.542969 16.695312 16.386719 17.070312 16.386719 17.511719 C 16.367188 17.851562 16.449219 18.164062 16.628906 18.449219 C 16.8125 18.738281 17.0625 18.945312 17.375 19.074219 C 17.691406 19.199219 18.011719 19.222656 18.34375 19.144531 C 18.671875 19.066406 18.949219 18.898438 19.171875 18.640625 C 19.269531 18.542969 19.382812 18.464844 19.511719 18.414062 C 19.640625 18.359375 19.777344 18.332031 19.917969 18.332031 C 20.054688 18.332031 20.191406 18.359375 20.320312 18.414062 C 20.449219 18.464844 20.5625 18.542969 20.660156 18.640625 C 20.757812 18.738281 20.832031 18.855469 20.882812 18.984375 C 20.9375 19.113281 20.960938 19.246094 20.960938 19.386719 C 20.960938 19.523438 20.9375 19.65625 20.882812 19.785156 C 20.832031 19.914062 20.757812 20.03125 20.660156 20.128906 C 19.921875 20.863281 19.027344 21.21875 17.988281 21.203125 " fill-opacity="1" fill-rule="nonzero"/><path fill="#f07eae" d="M 32.261719 17.511719 C 32.261719 18.449219 32.167969 19.378906 31.984375 20.296875 C 31.804688 21.214844 31.53125 22.109375 31.175781 22.972656 C 30.816406 23.839844 30.375 24.664062 29.855469 25.441406 C 29.335938 26.222656 28.742188 26.941406 28.082031 27.605469 C 27.417969 28.265625 26.695312 28.859375 25.917969 29.378906 C 25.136719 29.902344 24.316406 30.339844 23.449219 30.699219 C 22.582031 31.058594 21.691406 31.328125 20.773438 31.511719 C 19.851562 31.695312 18.925781 31.785156 17.988281 31.785156 C 17.050781 31.785156 16.121094 31.691406 15.203125 31.511719 C 14.285156 31.328125 13.394531 31.054688 12.527344 30.699219 C 11.660156 30.339844 10.839844 29.898438 10.058594 29.378906 C 9.28125 28.855469 8.5625 28.265625 7.898438 27.601562 C 7.234375 26.941406 6.644531 26.21875 6.125 25.441406 C 5.605469 24.660156 5.164062 23.839844 4.804688 22.972656 C 4.449219 22.109375 4.175781 21.214844 3.992188 20.296875 C 3.8125 19.378906 3.71875 18.449219 3.71875 17.511719 C 3.71875 16.574219 3.8125 15.648438 3.992188 14.726562 C 4.175781 13.808594 4.449219 12.917969 4.804688 12.050781 C 5.164062 11.1875 5.605469 10.363281 6.125 9.585938 C 6.644531 8.804688 7.234375 8.085938 7.898438 7.421875 C 8.5625 6.757812 9.28125 6.167969 10.058594 5.648438 C 10.839844 5.125 11.660156 4.6875 12.527344 4.328125 C 13.394531 3.96875 14.285156 3.699219 15.203125 3.515625 C 16.121094 3.332031 17.050781 3.238281 17.988281 3.238281 C 18.125 3.238281 18.257812 3.265625 18.386719 3.320312 C 18.515625 3.371094 18.628906 3.449219 18.726562 3.546875 C 18.824219 3.644531 18.898438 3.757812 18.953125 3.882812 C 19.003906 4.011719 19.03125 4.144531 19.03125 4.285156 L 19.03125 9.574219 C 19.03125 9.714844 19.003906 9.847656 18.949219 9.972656 C 18.894531 10.101562 18.820312 10.210938 18.722656 10.308594 C 18.625 10.40625 18.511719 10.484375 18.386719 10.535156 C 18.257812 10.589844 18.125 10.617188 17.988281 10.621094 C 16.59375 10.609375 15.316406 10.996094 14.160156 11.773438 C 13.589844 12.152344 13.089844 12.605469 12.65625 13.128906 C 12.21875 13.65625 11.871094 14.234375 11.609375 14.863281 C 11.347656 15.496094 11.183594 16.148438 11.117188 16.828125 C 11.050781 17.507812 11.085938 18.179688 11.21875 18.847656 C 11.328125 19.242188 11.46875 19.625 11.644531 19.992188 C 11.820312 20.359375 12.027344 20.710938 12.265625 21.042969 C 12.5 21.375 12.765625 21.6875 13.058594 21.972656 C 13.347656 22.257812 13.664062 22.515625 14 22.746094 C 14.335938 22.976562 14.691406 23.175781 15.0625 23.34375 C 15.433594 23.511719 15.820312 23.648438 16.214844 23.75 C 16.609375 23.847656 17.011719 23.914062 17.417969 23.945312 C 17.828125 23.976562 18.234375 23.96875 18.640625 23.929688 C 19.046875 23.886719 19.445312 23.808594 19.835938 23.699219 C 20.230469 23.585938 20.609375 23.441406 20.976562 23.261719 C 21.34375 23.085938 21.691406 22.875 22.023438 22.636719 C 22.355469 22.394531 22.660156 22.128906 22.945312 21.835938 C 23.226562 21.539062 23.484375 21.222656 23.710938 20.886719 C 23.9375 20.546875 24.136719 20.191406 24.300781 19.816406 C 24.464844 19.445312 24.597656 19.058594 24.695312 18.664062 C 24.792969 18.265625 24.855469 17.863281 24.878906 17.457031 C 24.878906 17.316406 24.902344 17.183594 24.957031 17.054688 C 25.007812 16.925781 25.082031 16.8125 25.183594 16.714844 C 25.28125 16.617188 25.394531 16.539062 25.523438 16.488281 C 25.652344 16.4375 25.785156 16.410156 25.925781 16.414062 L 31.214844 16.414062 C 31.359375 16.414062 31.496094 16.441406 31.628906 16.496094 C 31.761719 16.554688 31.875 16.632812 31.976562 16.738281 C 32.074219 16.839844 32.148438 16.960938 32.199219 17.09375 C 32.246094 17.230469 32.269531 17.367188 32.261719 17.511719 " fill-opacity="1" fill-rule="nonzero"/><path fill="#f07eae" d="M 31.757812 9.339844 C 31.722656 9.613281 31.617188 9.859375 31.4375 10.078125 L 28.417969 13.097656 C 27.980469 13.535156 27.464844 13.84375 26.871094 14.015625 C 26.527344 14.125 26.175781 14.175781 25.8125 14.171875 C 25.566406 14.191406 25.320312 14.191406 25.074219 14.171875 L 23.222656 13.808594 L 20.046875 16.996094 C 19.84375 17.195312 19.597656 17.296875 19.3125 17.304688 C 19.023438 17.304688 18.777344 17.199219 18.574219 16.996094 C 18.472656 16.898438 18.394531 16.789062 18.34375 16.660156 C 18.289062 16.53125 18.261719 16.398438 18.261719 16.257812 C 18.261719 16.121094 18.289062 15.988281 18.34375 15.859375 C 18.394531 15.730469 18.472656 15.617188 18.574219 15.519531 L 21.761719 12.320312 L 21.386719 10.480469 C 21.269531 9.878906 21.300781 9.285156 21.46875 8.699219 C 21.644531 8.105469 21.949219 7.589844 22.386719 7.152344 L 25.382812 4.160156 C 25.59375 3.96875 25.839844 3.851562 26.121094 3.808594 C 26.382812 3.773438 26.632812 3.8125 26.871094 3.9375 C 27.105469 4.054688 27.292969 4.226562 27.429688 4.449219 C 27.566406 4.703125 27.625 4.972656 27.597656 5.257812 L 27.148438 8.40625 L 30.285156 7.972656 C 30.550781 7.949219 30.804688 8 31.039062 8.128906 C 31.277344 8.257812 31.457031 8.445312 31.578125 8.683594 C 31.695312 8.886719 31.753906 9.105469 31.757812 9.339844 " fill-opacity="1" fill-rule="nonzero"/></svg>