<svg xmlns="http://www.w3.org/2000/svg" xmlns:xlink="http://www.w3.org/1999/xlink" width="48" zoomAndPan="magnify" viewBox="0 0 36 36.000001" height="48" preserveAspectRatio="xMidYMid meet" version="1.0"><path fill="#f07eae" d="M 6.324219 27.730469 L 6.324219 14.59375 C 6.324219 14.132812 6.429688 13.695312 6.636719 13.28125 C 6.84375 12.867188 7.128906 12.527344 7.492188 12.257812 L 16.25 5.691406 C 16.757812 5.300781 17.34375 5.109375 18 5.109375 C 18.65625 5.109375 19.242188 5.300781 19.75 5.691406 L 28.507812 12.257812 C 28.871094 12.527344 29.160156 12.867188 29.367188 13.28125 C 29.574219 13.695312 29.675781 14.132812 29.675781 14.59375 L 29.675781 27.730469 C 29.675781 28.53125 29.390625 29.21875 28.816406 29.792969 C 28.246094 30.363281 27.558594 30.648438 26.757812 30.648438 L 22.378906 30.648438 C 21.964844 30.648438 21.617188 30.507812 21.339844 30.226562 C 21.058594 29.949219 20.917969 29.601562 20.917969 29.1875 L 20.917969 21.890625 C 20.917969 21.476562 20.777344 21.132812 20.5 20.851562 C 20.21875 20.574219 19.871094 20.433594 19.460938 20.433594 L 16.539062 20.433594 C 16.128906 20.433594 15.78125 20.574219 15.5 20.851562 C 15.222656 21.132812 15.082031 21.480469 15.082031 21.890625 L 15.082031 29.1875 C 15.082031 29.601562 14.941406 29.949219 14.660156 30.230469 C 14.378906 30.511719 14.035156 30.648438 13.621094 30.648438 L 9.242188 30.648438 C 8.441406 30.648438 7.753906 30.363281 7.183594 29.792969 C 6.613281 29.222656 6.324219 28.535156 6.324219 27.730469 " fill-opacity="1" fill-rule="nonzero"/></svg>