<svg xmlns="http://www.w3.org/2000/svg" xmlns:xlink="http://www.w3.org/1999/xlink" width="48" zoomAndPan="magnify" viewBox="0 0 36 36.000001" height="48" preserveAspectRatio="xMidYMid meet" version="1.0"><path fill="#4f81c3" d="M 11.867188 4.378906 C 11.609375 4.378906 11.351562 4.402344 11.097656 4.453125 C 10.847656 4.503906 10.597656 4.578125 10.359375 4.675781 C 10.121094 4.777344 9.894531 4.898438 9.679688 5.042969 C 9.464844 5.183594 9.265625 5.347656 9.082031 5.53125 C 8.898438 5.714844 8.734375 5.914062 8.59375 6.128906 C 8.449219 6.34375 8.328125 6.570312 8.226562 6.808594 C 8.128906 7.046875 8.054688 7.292969 8.003906 7.546875 C 7.953125 7.800781 7.929688 8.058594 7.929688 8.316406 L 7.929688 26.699219 C 7.929688 26.960938 7.953125 27.214844 8.003906 27.46875 C 8.054688 27.722656 8.128906 27.96875 8.226562 28.207031 C 8.328125 28.449219 8.449219 28.675781 8.59375 28.890625 C 8.734375 29.105469 8.898438 29.304688 9.082031 29.488281 C 9.265625 29.667969 9.464844 29.832031 9.679688 29.976562 C 9.894531 30.121094 10.121094 30.242188 10.359375 30.339844 C 10.597656 30.4375 10.847656 30.515625 11.097656 30.566406 C 11.351562 30.613281 11.609375 30.640625 11.867188 30.640625 L 19.746094 30.640625 C 20.003906 30.640625 20.261719 30.613281 20.515625 30.566406 C 20.769531 30.515625 21.015625 30.4375 21.253906 30.339844 C 21.492188 30.242188 21.71875 30.121094 21.933594 29.976562 C 22.152344 29.832031 22.347656 29.667969 22.53125 29.488281 C 22.714844 29.304688 22.878906 29.105469 23.023438 28.890625 C 23.164062 28.675781 23.289062 28.449219 23.386719 28.207031 C 23.484375 27.96875 23.558594 27.722656 23.609375 27.46875 C 23.660156 27.214844 23.6875 26.960938 23.6875 26.699219 L 23.6875 8.316406 C 23.6875 8.058594 23.660156 7.800781 23.609375 7.546875 C 23.558594 7.292969 23.484375 7.046875 23.386719 6.808594 C 23.289062 6.570312 23.164062 6.34375 23.023438 6.128906 C 22.878906 5.914062 22.714844 5.714844 22.53125 5.53125 C 22.347656 5.347656 22.152344 5.183594 21.933594 5.042969 C 21.71875 4.898438 21.492188 4.777344 21.253906 4.675781 C 21.015625 4.578125 20.769531 4.503906 20.515625 4.453125 C 20.261719 4.402344 20.003906 4.378906 19.746094 4.378906 Z M 25.382812 11.328125 C 25.507812 11.203125 25.648438 11.109375 25.808594 11.042969 C 25.972656 10.976562 26.136719 10.945312 26.3125 10.945312 C 26.488281 10.945312 26.652344 10.976562 26.816406 11.042969 C 26.976562 11.109375 27.117188 11.203125 27.242188 11.328125 L 32.492188 16.582031 C 32.617188 16.703125 32.710938 16.84375 32.777344 17.007812 C 32.84375 17.167969 32.878906 17.335938 32.878906 17.507812 C 32.878906 17.683594 32.84375 17.851562 32.777344 18.011719 C 32.710938 18.171875 32.617188 18.3125 32.492188 18.4375 L 27.242188 23.691406 C 27.117188 23.808594 26.976562 23.902344 26.816406 23.964844 C 26.65625 24.027344 26.488281 24.058594 26.316406 24.058594 C 26.144531 24.058594 25.980469 24.023438 25.820312 23.957031 C 25.660156 23.890625 25.523438 23.796875 25.398438 23.675781 C 25.277344 23.550781 25.183594 23.410156 25.117188 23.253906 C 25.050781 23.09375 25.015625 22.929688 25.015625 22.757812 C 25.015625 22.585938 25.046875 22.417969 25.109375 22.257812 C 25.171875 22.097656 25.265625 21.957031 25.382812 21.832031 L 28.394531 18.820312 L 17.121094 18.820312 C 16.945312 18.820312 16.777344 18.789062 16.617188 18.722656 C 16.457031 18.65625 16.316406 18.5625 16.191406 18.4375 C 16.070312 18.3125 15.972656 18.171875 15.90625 18.011719 C 15.839844 17.851562 15.808594 17.683594 15.808594 17.507812 C 15.808594 17.335938 15.839844 17.167969 15.90625 17.007812 C 15.972656 16.84375 16.070312 16.703125 16.191406 16.582031 C 16.316406 16.457031 16.457031 16.363281 16.617188 16.296875 C 16.777344 16.230469 16.945312 16.195312 17.121094 16.195312 L 28.394531 16.195312 L 25.382812 13.183594 C 25.261719 13.0625 25.167969 12.917969 25.097656 12.757812 C 25.03125 12.597656 25 12.429688 25 12.257812 C 25 12.082031 25.03125 11.914062 25.097656 11.753906 C 25.167969 11.59375 25.261719 11.449219 25.382812 11.328125 " fill-opacity="1" fill-rule="evenodd"/></svg>