<svg xmlns="http://www.w3.org/2000/svg" xmlns:xlink="http://www.w3.org/1999/xlink" width="48" zoomAndPan="magnify" viewBox="0 0 36 36.000001" height="48" preserveAspectRatio="xMidYMid meet" version="1.0"><path fill="#f07eae" d="M 12.164062 10.070312 C 12.164062 9.6875 12.199219 9.308594 12.273438 8.929688 C 12.347656 8.554688 12.460938 8.191406 12.605469 7.835938 C 12.753906 7.480469 12.933594 7.144531 13.144531 6.828125 C 13.359375 6.507812 13.601562 6.214844 13.871094 5.941406 C 14.144531 5.671875 14.4375 5.429688 14.757812 5.214844 C 15.074219 5.003906 15.410156 4.824219 15.765625 4.675781 C 16.121094 4.53125 16.484375 4.417969 16.859375 4.34375 C 17.238281 4.269531 17.617188 4.234375 18 4.234375 C 18.382812 4.234375 18.761719 4.269531 19.140625 4.34375 C 19.515625 4.417969 19.878906 4.53125 20.234375 4.675781 C 20.589844 4.824219 20.925781 5.003906 21.242188 5.214844 C 21.5625 5.429688 21.855469 5.671875 22.128906 5.941406 C 22.398438 6.214844 22.640625 6.507812 22.855469 6.828125 C 23.066406 7.144531 23.246094 7.480469 23.394531 7.835938 C 23.539062 8.191406 23.652344 8.554688 23.726562 8.929688 C 23.800781 9.308594 23.835938 9.6875 23.835938 10.070312 C 23.835938 10.453125 23.800781 10.832031 23.726562 11.210938 C 23.652344 11.585938 23.539062 11.949219 23.394531 12.304688 C 23.246094 12.660156 23.066406 12.996094 22.855469 13.3125 C 22.640625 13.632812 22.398438 13.925781 22.128906 14.199219 C 21.855469 14.46875 21.5625 14.710938 21.242188 14.925781 C 20.925781 15.136719 20.589844 15.316406 20.234375 15.464844 C 19.878906 15.609375 19.515625 15.722656 19.140625 15.796875 C 18.761719 15.871094 18.382812 15.90625 18 15.90625 C 17.617188 15.90625 17.238281 15.871094 16.859375 15.796875 C 16.484375 15.722656 16.121094 15.609375 15.765625 15.464844 C 15.410156 15.316406 15.074219 15.136719 14.757812 14.925781 C 14.4375 14.710938 14.144531 14.46875 13.871094 14.199219 C 13.601562 13.925781 13.359375 13.632812 13.144531 13.3125 C 12.933594 12.996094 12.753906 12.660156 12.605469 12.304688 C 12.460938 11.949219 12.347656 11.585938 12.273438 11.210938 C 12.199219 10.832031 12.164062 10.453125 12.164062 10.070312 M 12.164062 18.828125 C 11.683594 18.828125 11.207031 18.875 10.738281 18.96875 C 10.269531 19.0625 9.8125 19.199219 9.371094 19.382812 C 8.925781 19.566406 8.507812 19.789062 8.109375 20.058594 C 7.710938 20.324219 7.339844 20.625 7.003906 20.964844 C 6.664062 21.304688 6.359375 21.671875 6.09375 22.070312 C 5.828125 22.46875 5.605469 22.890625 5.421875 23.332031 C 5.238281 23.773438 5.097656 24.230469 5.003906 24.699219 C 4.910156 25.171875 4.863281 25.644531 4.863281 26.125 C 4.863281 26.410156 4.894531 26.695312 4.949219 26.976562 C 5.003906 27.261719 5.089844 27.535156 5.199219 27.800781 C 5.308594 28.066406 5.441406 28.316406 5.601562 28.558594 C 5.761719 28.796875 5.945312 29.015625 6.148438 29.21875 C 6.351562 29.421875 6.570312 29.605469 6.8125 29.765625 C 7.050781 29.925781 7.300781 30.058594 7.566406 30.167969 C 7.832031 30.28125 8.105469 30.363281 8.390625 30.417969 C 8.671875 30.476562 8.957031 30.503906 9.242188 30.503906 L 26.757812 30.503906 C 27.042969 30.503906 27.328125 30.476562 27.609375 30.417969 C 27.894531 30.363281 28.167969 30.28125 28.433594 30.167969 C 28.699219 30.058594 28.949219 29.925781 29.1875 29.765625 C 29.429688 29.605469 29.648438 29.421875 29.851562 29.21875 C 30.054688 29.015625 30.238281 28.796875 30.398438 28.558594 C 30.558594 28.316406 30.691406 28.066406 30.800781 27.800781 C 30.910156 27.535156 30.996094 27.261719 31.050781 26.976562 C 31.105469 26.695312 31.136719 26.410156 31.136719 26.125 C 31.136719 25.644531 31.089844 25.171875 30.996094 24.699219 C 30.902344 24.230469 30.761719 23.773438 30.578125 23.332031 C 30.394531 22.890625 30.171875 22.46875 29.90625 22.070312 C 29.640625 21.671875 29.335938 21.304688 28.996094 20.964844 C 28.660156 20.625 28.289062 20.324219 27.890625 20.058594 C 27.492188 19.789062 27.074219 19.566406 26.628906 19.382812 C 26.1875 19.199219 25.730469 19.0625 25.261719 18.96875 C 24.792969 18.875 24.316406 18.828125 23.835938 18.828125 Z M 12.164062 18.828125 " fill-opacity="1" fill-rule="evenodd"/></svg>