<svg xmlns="http://www.w3.org/2000/svg" xmlns:xlink="http://www.w3.org/1999/xlink" width="48" zoomAndPan="magnify" viewBox="0 0 36 36.000001" height="48" preserveAspectRatio="xMidYMid meet" version="1.0"><path fill="#f07eae" d="M 26.757812 4.378906 L 28.214844 4.378906 C 28.601562 4.378906 28.976562 4.453125 29.332031 4.601562 C 29.691406 4.75 30.007812 4.960938 30.28125 5.234375 C 30.554688 5.507812 30.765625 5.824219 30.914062 6.179688 C 31.0625 6.539062 31.136719 6.910156 31.136719 7.296875 L 31.136719 27.730469 C 31.136719 28.117188 31.0625 28.488281 30.914062 28.847656 C 30.765625 29.203125 30.554688 29.519531 30.28125 29.792969 C 30.007812 30.066406 29.691406 30.277344 29.332031 30.425781 C 28.976562 30.574219 28.601562 30.648438 28.214844 30.648438 L 26.757812 30.648438 C 26.371094 30.648438 25.996094 30.574219 25.640625 30.425781 C 25.28125 30.277344 24.964844 30.066406 24.691406 29.792969 C 24.417969 29.519531 24.207031 29.203125 24.058594 28.847656 C 23.910156 28.488281 23.835938 28.117188 23.835938 27.730469 L 23.835938 7.296875 C 23.835938 6.910156 23.910156 6.539062 24.058594 6.179688 C 24.207031 5.824219 24.417969 5.507812 24.691406 5.234375 C 24.964844 4.960938 25.28125 4.75 25.640625 4.601562 C 25.996094 4.453125 26.371094 4.378906 26.757812 4.378906 Z M 26.757812 4.378906 " fill-opacity="1" fill-rule="nonzero"/><path fill="#f07eae" d="M 17.269531 13.136719 L 18.730469 13.136719 C 19.117188 13.136719 19.488281 13.210938 19.847656 13.355469 C 20.203125 13.503906 20.519531 13.714844 20.792969 13.988281 C 21.066406 14.265625 21.277344 14.578125 21.425781 14.9375 C 21.574219 15.292969 21.648438 15.667969 21.648438 16.054688 L 21.648438 27.730469 C 21.648438 28.117188 21.574219 28.488281 21.425781 28.847656 C 21.277344 29.203125 21.066406 29.519531 20.792969 29.792969 C 20.519531 30.066406 20.203125 30.277344 19.847656 30.425781 C 19.488281 30.574219 19.117188 30.648438 18.730469 30.648438 L 17.269531 30.648438 C 16.882812 30.648438 16.511719 30.574219 16.152344 30.425781 C 15.796875 30.277344 15.480469 30.066406 15.207031 29.792969 C 14.933594 29.519531 14.722656 29.203125 14.574219 28.847656 C 14.425781 28.488281 14.351562 28.117188 14.351562 27.730469 L 14.351562 16.054688 C 14.351562 15.667969 14.425781 15.292969 14.574219 14.9375 C 14.722656 14.578125 14.933594 14.265625 15.207031 13.988281 C 15.480469 13.714844 15.796875 13.503906 16.152344 13.355469 C 16.511719 13.210938 16.882812 13.136719 17.269531 13.136719 Z M 17.269531 13.136719 " fill-opacity="1" fill-rule="nonzero"/><path fill="#f07eae" d="M 7.785156 23.351562 L 9.242188 23.351562 C 9.628906 23.351562 10.003906 23.425781 10.359375 23.574219 C 10.71875 23.722656 11.035156 23.933594 11.308594 24.207031 C 11.582031 24.480469 11.792969 24.796875 11.941406 25.152344 C 12.089844 25.511719 12.164062 25.882812 12.164062 26.269531 L 12.164062 27.730469 C 12.164062 28.117188 12.089844 28.488281 11.941406 28.847656 C 11.792969 29.203125 11.582031 29.519531 11.308594 29.792969 C 11.035156 30.066406 10.71875 30.277344 10.359375 30.425781 C 10.003906 30.574219 9.628906 30.648438 9.242188 30.648438 L 7.785156 30.648438 C 7.398438 30.648438 7.023438 30.574219 6.667969 30.425781 C 6.308594 30.277344 5.992188 30.066406 5.71875 29.792969 C 5.445312 29.519531 5.234375 29.203125 5.085938 28.847656 C 4.9375 28.488281 4.863281 28.117188 4.863281 27.730469 L 4.863281 26.269531 C 4.863281 25.882812 4.9375 25.511719 5.085938 25.152344 C 5.234375 24.796875 5.445312 24.480469 5.71875 24.207031 C 5.992188 23.933594 6.308594 23.722656 6.667969 23.574219 C 7.023438 23.425781 7.398438 23.351562 7.785156 23.351562 Z M 7.785156 23.351562 " fill-opacity="1" fill-rule="nonzero"/></svg>