<svg xmlns="http://www.w3.org/2000/svg" xmlns:xlink="http://www.w3.org/1999/xlink" width="48" zoomAndPan="magnify" viewBox="0 0 36 36.000001" height="48" preserveAspectRatio="xMidYMid meet" version="1.0"><path fill="#f07eae" d="M 29.382812 17.84375 C 30.535156 16.933594 31.382812 15.800781 31.929688 14.4375 C 32.300781 15.511719 32.488281 16.71875 32.488281 18.066406 C 32.488281 21.277344 31.351562 23.53125 30.191406 24.980469 C 29.65625 25.648438 29.039062 26.234375 28.347656 26.738281 L 28.347656 28.894531 C 28.347656 29.308594 28.269531 29.703125 28.109375 30.085938 C 27.953125 30.464844 27.730469 30.800781 27.4375 31.09375 C 27.148438 31.382812 26.8125 31.605469 26.429688 31.765625 C 26.050781 31.921875 25.652344 32 25.242188 32 L 24.207031 32 C 23.933594 32 23.667969 31.949219 23.414062 31.84375 C 23.160156 31.738281 22.9375 31.589844 22.742188 31.394531 C 22.550781 31.199219 22.398438 30.976562 22.292969 30.722656 C 22.191406 30.46875 22.136719 30.207031 22.136719 29.929688 L 17.996094 29.929688 C 17.996094 30.207031 17.945312 30.46875 17.839844 30.722656 C 17.734375 30.976562 17.585938 31.199219 17.390625 31.394531 C 17.195312 31.589844 16.972656 31.738281 16.71875 31.84375 C 16.464844 31.949219 16.199219 32 15.925781 32 L 14.890625 32 C 14.480469 32 14.082031 31.921875 13.703125 31.765625 C 13.324219 31.605469 12.988281 31.382812 12.695312 31.09375 C 12.40625 30.800781 12.179688 30.464844 12.023438 30.085938 C 11.863281 29.703125 11.785156 29.308594 11.785156 28.894531 L 11.785156 28.457031 C 10.445312 28.027344 9.277344 27.3125 8.289062 26.3125 C 7.0625 25.066406 6.375 23.511719 6.03125 22.539062 C 5.945312 22.25 5.757812 22.054688 5.472656 21.953125 C 5.191406 21.875 4.929688 21.75 4.6875 21.585938 C 4.441406 21.417969 4.234375 21.21875 4.054688 20.984375 C 3.878906 20.75 3.742188 20.492188 3.648438 20.214844 C 3.554688 19.933594 3.507812 19.648438 3.503906 19.355469 L 3.503906 17.710938 C 3.503906 16.519531 4.296875 15.472656 5.441406 15.144531 C 5.65625 15.082031 5.886719 14.871094 6 14.527344 C 6.28125 13.683594 6.816406 12.4375 7.804688 11.441406 C 8.65625 10.585938 9.613281 9.878906 10.679688 9.3125 L 10.679688 5.425781 C 10.683594 5.105469 10.773438 4.8125 10.953125 4.546875 C 11.136719 4.277344 11.375 4.085938 11.675781 3.96875 C 11.96875 3.847656 12.265625 3.816406 12.578125 3.871094 C 12.886719 3.925781 13.15625 4.0625 13.386719 4.28125 C 13.910156 4.773438 14.597656 5.363281 15.332031 5.847656 C 16.085938 6.339844 16.796875 6.652344 17.375 6.710938 L 17.382812 6.710938 C 16.828125 7.535156 16.433594 8.425781 16.199219 9.390625 C 15.964844 10.351562 15.90625 11.328125 16.023438 12.3125 C 16.273438 14.441406 17.921875 15.722656 19.304688 16.292969 L 24.25 18.34375 C 25.632812 18.914062 27.703125 19.175781 29.382812 17.84375 M 11.269531 16.476562 C 11.472656 16.476562 11.671875 16.4375 11.863281 16.355469 C 12.054688 16.277344 12.222656 16.164062 12.367188 16.019531 C 12.511719 15.875 12.625 15.707031 12.703125 15.515625 C 12.78125 15.328125 12.820312 15.128906 12.820312 14.921875 C 12.820312 14.714844 12.78125 14.519531 12.703125 14.328125 C 12.625 14.136719 12.511719 13.96875 12.367188 13.824219 C 12.222656 13.679688 12.054688 13.566406 11.863281 13.488281 C 11.671875 13.410156 11.472656 13.371094 11.269531 13.371094 C 11.0625 13.371094 10.863281 13.410156 10.675781 13.488281 C 10.484375 13.566406 10.316406 13.679688 10.171875 13.824219 C 10.023438 13.96875 9.914062 14.136719 9.835938 14.328125 C 9.753906 14.519531 9.714844 14.714844 9.714844 14.921875 C 9.714844 15.128906 9.753906 15.328125 9.835938 15.515625 C 9.914062 15.707031 10.023438 15.875 10.171875 16.019531 C 10.316406 16.164062 10.484375 16.277344 10.675781 16.355469 C 10.863281 16.4375 11.0625 16.476562 11.269531 16.476562 M 18.472656 9.0625 C 18.648438 8.621094 18.871094 8.203125 19.144531 7.8125 C 19.414062 7.421875 19.726562 7.066406 20.082031 6.746094 C 20.433594 6.425781 20.820312 6.152344 21.234375 5.917969 C 21.652344 5.6875 22.089844 5.507812 22.546875 5.378906 C 23.007812 5.246094 23.472656 5.171875 23.949219 5.148438 C 24.425781 5.125 24.898438 5.15625 25.367188 5.242188 C 25.835938 5.328125 26.285156 5.464844 26.722656 5.65625 C 27.160156 5.847656 27.570312 6.082031 27.953125 6.367188 C 28.335938 6.652344 28.679688 6.976562 28.988281 7.339844 C 29.296875 7.703125 29.558594 8.097656 29.773438 8.519531 C 29.992188 8.945312 30.160156 9.386719 30.273438 9.851562 C 30.386719 10.3125 30.449219 10.78125 30.457031 11.257812 C 30.464844 11.734375 30.417969 12.207031 30.316406 12.671875 C 30.214844 13.136719 30.0625 13.585938 29.855469 14.015625 C 29.652344 14.445312 29.402344 14.847656 29.105469 15.21875 C 28.808594 15.59375 28.472656 15.925781 28.097656 16.222656 C 27.238281 16.902344 26.054688 16.851562 25.042969 16.429688 L 20.09375 14.378906 C 19.078125 13.960938 18.207031 13.160156 18.078125 12.070312 C 18.015625 11.542969 18.023438 11.011719 18.097656 10.484375 Z M 18.472656 9.0625 L 18.191406 9.96875 C 18.261719 9.660156 18.355469 9.359375 18.472656 9.0625 " fill-opacity="1" fill-rule="nonzero"/></svg>