<svg xmlns="http://www.w3.org/2000/svg" xmlns:xlink="http://www.w3.org/1999/xlink" width="48" zoomAndPan="magnify" viewBox="0 0 36 36.000001" height="48" preserveAspectRatio="xMidYMid meet" version="1.0"><defs><clipPath id="0aa3c36055"><path d="M 3.625 4 L 32 4 L 32 29 L 3.625 29 Z M 3.625 4 " clip-rule="nonzero"/></clipPath></defs><g clip-path="url(#0aa3c36055)"><path fill="#f07eae" d="M 15.601562 9.726562 C 15.601562 9.496094 15.617188 9.269531 15.644531 9.042969 C 15.671875 8.816406 15.714844 8.59375 15.773438 8.371094 C 15.832031 8.148438 15.902344 7.933594 15.988281 7.722656 C 16.070312 7.507812 16.171875 7.304688 16.28125 7.105469 C 16.390625 6.902344 16.515625 6.710938 16.652344 6.527344 C 16.785156 6.34375 16.933594 6.171875 17.089844 6.003906 C 17.246094 5.839844 17.414062 5.683594 17.59375 5.539062 C 17.769531 5.398438 17.957031 5.265625 18.148438 5.144531 C 18.34375 5.023438 18.542969 4.917969 18.753906 4.820312 C 18.960938 4.726562 19.171875 4.644531 19.390625 4.578125 C 19.609375 4.507812 19.832031 4.457031 20.054688 4.417969 C 20.28125 4.375 20.507812 4.351562 20.734375 4.339844 C 20.964844 4.328125 21.191406 4.332031 21.417969 4.351562 C 21.648438 4.371094 21.871094 4.402344 22.097656 4.449219 C 22.320312 4.496094 22.539062 4.558594 22.753906 4.632812 C 22.972656 4.707031 23.179688 4.792969 23.386719 4.894531 C 23.589844 4.792969 23.800781 4.707031 24.015625 4.632812 C 24.234375 4.558594 24.453125 4.496094 24.675781 4.449219 C 24.898438 4.402344 25.125 4.371094 25.351562 4.351562 C 25.578125 4.335938 25.808594 4.332031 26.035156 4.339844 C 26.265625 4.351562 26.492188 4.378906 26.714844 4.417969 C 26.941406 4.457031 27.160156 4.511719 27.378906 4.578125 C 27.597656 4.644531 27.8125 4.726562 28.019531 4.824219 C 28.226562 4.917969 28.425781 5.023438 28.621094 5.144531 C 28.816406 5.265625 29 5.398438 29.179688 5.542969 C 29.355469 5.6875 29.523438 5.839844 29.679688 6.007812 C 29.835938 6.171875 29.984375 6.347656 30.121094 6.53125 C 30.253906 6.714844 30.378906 6.90625 30.488281 7.105469 C 30.601562 7.304688 30.699219 7.511719 30.78125 7.722656 C 30.867188 7.933594 30.9375 8.152344 30.996094 8.371094 C 31.054688 8.59375 31.097656 8.816406 31.125 9.042969 C 31.15625 9.269531 31.167969 9.496094 31.167969 9.726562 C 31.167969 9.953125 31.15625 10.179688 31.125 10.40625 C 31.097656 10.632812 31.054688 10.859375 30.996094 11.078125 C 30.9375 11.300781 30.867188 11.515625 30.78125 11.726562 C 30.699219 11.941406 30.601562 12.144531 30.488281 12.34375 C 30.378906 12.546875 30.253906 12.738281 30.121094 12.921875 C 29.984375 13.105469 29.835938 13.277344 29.679688 13.445312 C 29.523438 13.609375 29.355469 13.765625 29.179688 13.910156 C 29 14.050781 28.816406 14.183594 28.621094 14.304688 C 28.425781 14.425781 28.226562 14.53125 28.019531 14.628906 C 27.8125 14.722656 27.597656 14.804688 27.378906 14.871094 C 27.160156 14.9375 26.941406 14.992188 26.714844 15.03125 C 26.492188 15.074219 26.265625 15.097656 26.035156 15.109375 C 25.808594 15.121094 25.578125 15.117188 25.351562 15.097656 C 25.125 15.078125 24.898438 15.046875 24.675781 15 C 24.453125 14.953125 24.234375 14.894531 24.015625 14.816406 C 23.800781 14.742188 23.589844 14.65625 23.386719 14.554688 C 23.179688 14.65625 22.972656 14.742188 22.753906 14.820312 C 22.539062 14.894531 22.320312 14.953125 22.097656 15 C 21.871094 15.046875 21.648438 15.082031 21.417969 15.097656 C 21.191406 15.117188 20.964844 15.121094 20.734375 15.109375 C 20.507812 15.097656 20.28125 15.074219 20.054688 15.035156 C 19.832031 14.996094 19.609375 14.941406 19.390625 14.871094 C 19.171875 14.804688 18.960938 14.722656 18.753906 14.628906 C 18.542969 14.535156 18.34375 14.425781 18.148438 14.304688 C 17.957031 14.1875 17.769531 14.054688 17.59375 13.910156 C 17.414062 13.765625 17.246094 13.609375 17.089844 13.445312 C 16.933594 13.28125 16.785156 13.105469 16.652344 12.921875 C 16.515625 12.738281 16.390625 12.546875 16.28125 12.347656 C 16.171875 12.148438 16.070312 11.941406 15.988281 11.730469 C 15.902344 11.515625 15.832031 11.300781 15.773438 11.078125 C 15.714844 10.859375 15.671875 10.632812 15.644531 10.40625 C 15.617188 10.179688 15.601562 9.953125 15.601562 9.726562 M 25.480469 12.703125 C 25.582031 12.714844 25.679688 12.71875 25.78125 12.71875 C 26.191406 12.71875 26.582031 12.636719 26.960938 12.476562 C 27.335938 12.3125 27.664062 12.082031 27.945312 11.785156 C 28.230469 11.488281 28.441406 11.148438 28.582031 10.765625 C 28.726562 10.378906 28.785156 9.984375 28.765625 9.574219 C 28.746094 9.167969 28.644531 8.777344 28.464844 8.410156 C 28.285156 8.042969 28.039062 7.722656 27.730469 7.457031 C 27.417969 7.191406 27.070312 6.996094 26.679688 6.871094 C 26.289062 6.746094 25.890625 6.707031 25.480469 6.746094 C 26.082031 7.648438 26.378906 8.640625 26.378906 9.726562 C 26.378906 10.808594 26.082031 11.800781 25.480469 12.703125 M 13.726562 19.007812 C 13.3125 19.007812 12.960938 19.152344 12.667969 19.441406 L 10.210938 21.898438 L 10.210938 26.492188 L 16.949219 26.492188 L 23.902344 24.757812 L 28.132812 22.949219 C 28.28125 22.871094 28.382812 22.75 28.441406 22.589844 C 28.5 22.429688 28.496094 22.273438 28.429688 22.113281 C 28.367188 21.957031 28.257812 21.84375 28.105469 21.769531 C 27.953125 21.695312 27.796875 21.679688 27.632812 21.726562 L 27.609375 21.730469 L 19.929688 23.5 L 15.601562 23.5 L 15.601562 21.101562 L 19.34375 21.101562 C 19.484375 21.101562 19.617188 21.078125 19.746094 21.023438 C 19.875 20.96875 19.988281 20.894531 20.085938 20.796875 C 20.183594 20.699219 20.257812 20.585938 20.3125 20.457031 C 20.367188 20.328125 20.390625 20.195312 20.390625 20.054688 C 20.390625 19.917969 20.367188 19.78125 20.3125 19.652344 C 20.257812 19.527344 20.183594 19.414062 20.085938 19.3125 C 19.988281 19.214844 19.875 19.140625 19.746094 19.085938 C 19.617188 19.035156 19.484375 19.007812 19.34375 19.007812 Z M 22.773438 20.386719 L 27.027344 19.410156 C 27.253906 19.347656 27.484375 19.316406 27.71875 19.308594 C 27.949219 19.300781 28.183594 19.320312 28.414062 19.367188 C 28.640625 19.414062 28.863281 19.488281 29.078125 19.582031 C 29.289062 19.679688 29.488281 19.800781 29.675781 19.945312 C 29.859375 20.085938 30.027344 20.25 30.175781 20.429688 C 30.324219 20.609375 30.449219 20.804688 30.554688 21.015625 C 30.660156 21.226562 30.738281 21.445312 30.789062 21.671875 C 30.84375 21.902344 30.871094 22.132812 30.871094 22.367188 C 30.871094 22.945312 30.71875 23.484375 30.414062 23.976562 C 30.109375 24.46875 29.695312 24.847656 29.179688 25.105469 L 29.144531 25.121094 L 24.667969 27.03125 L 17.246094 28.886719 L 3.625 28.886719 L 3.625 20.203125 L 8.519531 20.203125 L 10.976562 17.746094 C 11.738281 16.988281 12.65625 16.609375 13.730469 16.613281 L 19.34375 16.613281 C 19.585938 16.613281 19.820312 16.636719 20.054688 16.6875 C 20.292969 16.734375 20.519531 16.808594 20.738281 16.90625 C 20.957031 17.003906 21.164062 17.121094 21.359375 17.261719 C 21.554688 17.402344 21.730469 17.5625 21.894531 17.742188 C 22.054688 17.917969 22.195312 18.109375 22.316406 18.316406 C 22.4375 18.523438 22.535156 18.742188 22.613281 18.972656 C 22.6875 19.199219 22.738281 19.433594 22.765625 19.671875 C 22.792969 19.910156 22.792969 20.148438 22.773438 20.386719 M 7.816406 22.601562 L 6.019531 22.601562 L 6.019531 26.492188 L 7.816406 26.492188 Z M 7.816406 22.601562 " fill-opacity="1" fill-rule="nonzero"/></g></svg>